{"accessors" : [{"bufferView" : 0, "byteOffset" : 0, "componentType" : 5125, "count" : 67956, "type" : "SCALAR", "max" : [67955], "min" : [0]}, {"bufferView" : 1, "byteOffset" : 0, "componentType" : 5126, "count" : 67956, "type" : "VEC3", "max" : [-0.02266337350010872, 0.1550806164741516, 0.13596875965595245], "min" : [-0.42291000485420227, -0.006967119872570038, -0.3305560052394867]}, {"bufferView" : 1, "byteOffset" : 12, "componentType" : 5126, "count" : 67956, "type" : "VEC3", "max" : [0.9999021887779236, 0.9999939203262329, 0.9989398717880249], "min" : [-0.998978853225708, -0.9998717904090881, -0.999958336353302]}, {"bufferView" : 1, "byteOffset" : 24, "componentType" : 5126, "count" : 67956, "type" : "VEC3", "max" : [0.9999638795852661, 0.9999045133590698, 0.9997485280036926], "min" : [-0.9999909996986389, -0.9998027086257935, -0.9996559023857117]}, {"bufferView" : 1, "byteOffset" : 36, "componentType" : 5126, "count" : 67956, "type" : "VEC2", "max" : [0.9990836977958679, 1], "min" : [-3.5834151201896702E-09, 0.0011629462242126465]}, {"bufferView" : 0, "byteOffset" : 271824, "componentType" : 5123, "count" : 36546, "type" : "SCALAR", "max" : [36545], "min" : [0]}, {"bufferView" : 2, "byteOffset" : 0, "componentType" : 5126, "count" : 36546, "type" : "VEC3", "max" : [-0.15107716619968414, 0.1359260529279709, -0.04099862650036812], "min" : [-0.2711706757545471, 0.0731884092092514, -0.2196607142686844]}, {"bufferView" : 2, "byteOffset" : 12, "componentType" : 5126, "count" : 36546, "type" : "VEC3", "max" : [0.9996539950370789, 0.9994529485702515, 0.9988802671432495], "min" : [-0.9997729063034058, -0.9994222521781921, -0.9998937249183655]}, {"bufferView" : 2, "byteOffset" : 24, "componentType" : 5126, "count" : 36546, "type" : "VEC3", "max" : [0.9991253614425659, 0.9957104921340942, 0.9999003410339355], "min" : [-0.9997342824935913, -0.9854381680488586, -0.9999980926513672]}, {"bufferView" : 2, "byteOffset" : 36, "componentType" : 5126, "count" : 36546, "type" : "VEC2", "max" : [0.9985349774360657, 0.9995121955871582], "min" : [0.00048780045472085476, 0.006236255168914795]}], "asset" : {"generator" : "Aspose.3D 20.7.1", "version" : "2.0"}, "buffers" : [{"uri" : "buffer.bin", "byteLength" : 4943016}], "bufferViews" : [{"buffer" : 0, "byteOffset" : 0, "byteLength" : 344916, "target" : 34963}, {"buffer" : 0, "byteOffset" : 344920, "byteLength" : 2990064, "byteStride" : 44, "target" : 34962}, {"buffer" : 0, "byteOffset" : 3334988, "byteLength" : 1608024, "byteStride" : 44, "target" : 34962}], "materials" : [{"pbrMetallicRoughness" : {"baseColorFactor" : [0.788398743, 0.788398743, 0.788398743, 1], "metallicFactor" : 0, "roughnessFactor" : 0.9}, "emissiveFactor" : [0, 0, 0], "alphaMode" : "OPAQUE", "doubleSided" : false}, {"pbrMetallicRoughness" : {"baseColorFactor" : [0.5208334, 0.5208334, 0.5208334, 1], "metallicFactor" : 0, "roughnessFactor" : 0.9}, "emissiveFactor" : [0, 0, 0], "alphaMode" : "OPAQUE", "doubleSided" : false}], "meshes" : [{"primitives" : [{"attributes" : {"POSITION" : 1, "NORMAL" : 2, "TANGENT" : 3, "TEXCOORD_0" : 4}, "indices" : 0, "material" : 0, "mode" : 4}]}, {"primitives" : [{"attributes" : {"POSITION" : 6, "NORMAL" : 7, "TANGENT" : 8, "TEXCOORD_0" : 9}, "indices" : 5, "material" : 1, "mode" : 4}]}], "nodes" : [{"mesh" : 0, "name" : "model_body"}, {"mesh" : 1, "name" : "blood_sack"}, {"children" : [0, 1], "name" : "BBG_model_GRP"}], "scene" : 0, "scenes" : [{"nodes" : [2]}]}