{
    "asset" : {
        "generator" : "Khronos glTF Blender I/O v1.1.46",
        "version" : "2.0"
    },
    "scene" : 0,
    "scenes" : [
        {
            "extras" : {
                "glTF2ExportSettings" : {
                    "export_animations" : 0,
                    "export_apply" : 1,
                    "export_current_frame" : 1,
                    "export_extras" : 1,
                    "export_format" : "GLTF_EMBEDDED",
                    "export_morph" : 0,
                    "export_selected" : 1,
                    "export_skins" : 0,
                    "export_tangents" : 1
                }
            },
            "name" : "Scene",
            "nodes" : [
                0
            ]
        }
    ],
    "nodes" : [
        {
            "mesh" : 0,
            "name" : "Mball.007",
            "rotation" : [
                0.7098865509033203,
                0,
                0,
                0.7043160200119019
            ],
            "scale" : [
                0.5451484322547913,
                0.5451484322547913,
                0.5451484322547913
            ],
            "translation" : [
                -15.432111740112305,
                21.365283966064453,
                0.7520637512207031
            ]
        }
    ],
    "materials" : [
        {
            "doubleSided" : true,
            "emissiveFactor" : [
                0,
                0,
                0
            ],
            "name" : "Material.003",
            "pbrMetallicRoughness" : {
                "baseColorFactor" : [
                    0.8000000715255737,
                    0.7093244194984436,
                    0,
                    1
                ],
                "metallicFactor" : 0.8916666507720947,
                "roughnessFactor" : 0.5
            }
        }
    ],
    "meshes" : [
        {
            "name" : "Mesh",
            "primitives" : [
                {
                    "attributes" : {
                        "POSITION" : 0,
                        "NORMAL" : 1
                    },
                    "indices" : 2,
                    "material" : 0
                }
            ]
        }
    ],
    "accessors" : [
        {
            "bufferView" : 0,
            "componentType" : 5126,
            "count" : 5044,
            "max" : [
                152.26275634765625,
                24.321426391601562,
                42.99037551879883
            ],
            "min" : [
                -1.1151094436645508,
                -2.4363837242126465,
                -51.83428192138672
            ],
            "type" : "VEC3"
        },
        {
            "bufferView" : 1,
            "componentType" : 5126,
            "count" : 5044,
            "type" : "VEC3"
        },
        {
            "bufferView" : 2,
            "componentType" : 5123,
            "count" : 30180,
            "type" : "SCALAR"
        }
    ],
    "bufferViews" : [
        {
            "buffer" : 0,
            "byteLength" : 60528,
            "byteOffset" : 0
        },
        {
            "buffer" : 0,
            "byteLength" : 60528,
            "byteOffset" : 60528
        },
        {
            "buffer" : 0,
            "byteLength" : 60360,
            "byteOffset" : 121056
        }
    ],
    "buffers" : [
        {
            "byteLength" : 181416,
            "uri" : "data:application/octet-stream;base64,"
        }
    ]
}
